<svg height="512" viewBox="0 0 32 58" width="512" xmlns="http://www.w3.org/2000/svg"><g id="Page-1" fill="none" fill-rule="evenodd"><g id="034---Gas-Canister" fill-rule="nonzero"><path id="Shape" d="m12 12.58v-2.58c.0032948-1.10320187.8967981-1.9967052 2-2h4c1.1032019.0032948 1.9967052.89679813 2 2v2.58z" fill="#95a5a5"/><path id="Rectangle-path" d="m14 4h4v4h-4z" fill="#7f8c8d"/><rect id="Rectangle-path" fill="#95a5a5" height="4" rx="2" width="10" x="11"/><g fill="#3b97d3"><path id="Shape" d="m30 53v3c-.0032948 1.1032019-.8967981 1.9967052-2 2h-24c-1.10320187-.0032948-1.9967052-.8967981-2-2v-3z"/><path id="Rectangle-path" d="m2 30h28v18h-28z"/><path id="Shape" d="m2.04 25c.55307748-7.3008398 6.63824091-12.9424557 13.96-12.9424557 7.3217591 0 13.4069225 5.6416159 13.96 12.9424557z"/></g><path id="Shape" d="m6.864 22.94c-.33869472-.0003325-.65420212-.1720814-.83833246-.4563528-.18413035-.2842714-.21185521-.642425-.07366754-.9516472 1.45578748-3.2562685 4.3942451-5.6092692 7.89-6.318.5415152-.1088001 1.0686999.2419848 1.1775.7835s-.2419848 1.0686999-.7835 1.1775c-2.8612927.5805494-5.26633844 2.5066715-6.458 5.172-.16078698.3608536-.51894589.5932259-.914.593z" fill="#67b9cc"/><path id="Shape" d="m24 48h6c1.1045695 0 2 .8954305 2 2v1c0 1.1045695-.8954305 2-2 2h-28c-1.1045695 0-2-.8954305-2-2v-1c0-1.1045695.8954305-2 2-2z" fill="#67b9cc"/><path id="Shape" d="m21 30h9c1.1045695 0 2-.8954305 2-2v-1c0-1.1045695-.8954305-2-2-2h-28c-1.1045695 0-2 .8954305-2 2v1c0 1.1045695.8954305 2 2 2z" fill="#67b9cc"/><path id="Shape" d="m16.265 47c-.6939484.0003902-1.3851395-.0873107-2.057-.261-1.2120859-.2888779-2.307595-.9396961-3.141-1.866-1.0363291-1.3689623-1.35250505-3.1521947-.85-4.794l.419-1.551 1.045 1.187c.2537895.29846.5936364.5111699.973.609.1059363.0244195.2142858.036831.323.037.3617441.0031934.7096795-.1387182.966-.394.2786898-.2875426.3917558-.6972184.3-1.087-.089904-.3498196-.2397913-.6813987-.443-.98-.1678503-.2597309-.3022458-.5396095-.4-.833-.2487662-1.0791169.060323-2.2110668.823-3.014.3247875-.3958823.6744976-.7706432 1.047-1.122.173-.171.323-.318.469-.47l1.414-1.461.051 2.079c0 .126.012.25.025.372.0790054.7836254.4468946 1.5097788 1.032 2.037l.293.276c.7805254.6776233 1.4780501 1.4453033 2.078 2.287.5707839.840809.988537 1.7758449 1.234 2.762.3352584 1.4117097.0435487 2.899429-.8 4.08-1.1755409 1.4240874-2.957055 2.205935-4.801 2.107z" fill="#f0c419"/></g></g></svg>