<svg id="Capa_1" enable-background="new 0 0 512.064 512.064" height="512" viewBox="0 0 512.064 512.064" width="512" xmlns="http://www.w3.org/2000/svg"><g><g><circle cx="262.355" cy="227.305" fill="#d8ecfe" r="227.305"/><path d="m489.658 227.309c0 125.536-101.764 227.3-227.3 227.3-66.869 0-126.997-28.876-168.592-74.834 40.329 36.491 93.81 58.708 152.467 58.708 125.536 0 227.3-101.764 227.3-227.3 0-58.688-22.238-112.189-58.76-152.518 45.989 41.595 74.885 101.744 74.885 168.644z" fill="#c4e2ff"/><circle cx="262.355" cy="227.305" fill="#b3dafe" r="158.459"/><path d="m420.814 227.309c0 87.512-70.944 158.456-158.456 158.456-47.872 0-90.774-21.219-119.825-54.767 27.795 24.08 64.049 38.641 103.699 38.641 87.512 0 158.456-70.944 158.456-158.456 0-39.65-14.561-75.904-38.642-103.699 33.548 29.051 54.768 71.953 54.768 119.825z" fill="#8ac9fe"/></g><g><path d="m144.905 511.905-3.375-.446c-9.981-1.318-17.003-10.478-15.684-20.459l30.827-233.367 39.519 5.22-30.828 233.367c-1.319 9.981-10.479 17.003-20.459 15.685z" fill="#685e68"/><path d="m196.189 262.853-30.759 232.847c-1.358 10.27-10.785 17.494-21.055 16.136l-2.326-.309c-3.952-.525-7.45-2.233-10.177-4.734 7.234-1.811 12.966-7.883 14.006-15.724l30.491-230.83z" fill="#554e56"/><path d="m199.359 86.678-39.717-5.247c-2.923-.386-5.605 1.67-5.991 4.593l-11.924 90.267c-1.774 13.431 4.077 26.317 14.477 33.421 3.871 2.645 5.832 7.319 5.218 11.967l-4.749 35.954 39.519 5.22 4.749-35.954c.614-4.648 3.721-8.653 8.146-10.202 11.888-4.16 20.884-15.085 22.658-28.515l11.924-90.267c.386-2.923-1.67-5.605-4.593-5.991z" fill="#e2dee2"/><path d="m243.67 97.914-11.927 90.27c-1.77 13.429-10.774 24.358-22.66 28.516-4.425 1.544-7.533 5.547-8.14 10.198l-4.754 35.956-19.851-2.624 5.053-39.228c.607-4.651 3.715-8.654 8.14-10.198 11.886-4.168 20.89-15.086 22.66-28.515l11.927-90.27c.093-.72.041-1.43-.144-2.089l15.107 1.996c2.922.38 4.97 3.066 4.589 5.988z" fill="#cbc4cc"/><g><g><path d="m191.715 85.669-10.713 81.09c-.504 3.88-3.828 6.71-7.636 6.71-.34 0-.679-.021-1.019-.062-4.229-.566-7.203-4.446-6.648-8.665l10.713-81.091v-.01z" fill="#b5adb6"/></g><g><path d="m222.299 89.713-10.713 81.09c-.515 3.88-3.828 6.71-7.636 6.71-.34 0-.679-.021-1.019-.072-4.229-.556-7.203-4.435-6.648-8.665l10.713-81.09z" fill="#b5adb6"/></g></g></g><g><path d="m382.721 511.585-3.385.362c-10.01 1.071-18.993-6.176-20.064-16.186l-25.043-234.059 39.636-4.241 25.043 234.059c1.07 10.011-6.177 18.994-16.187 20.065z" fill="#685e68"/><path d="m382.193 511.64-2.326.247c-3.993.422-7.831-.432-11.093-2.243 6.658-3.458 10.857-10.743 10.013-18.647l-24.759-231.417 19.84-2.12 24.986 233.537c1.101 10.301-6.36 19.542-16.661 20.643z" fill="#554e56"/><path d="m373.864 257.462-39.636 4.241-3.068-28.673c-.508-4.743-2.818-9.11-6.453-12.199l-8.311-7.06c-4.398-3.736-6.813-9.301-6.538-15.065l6.334-132.609c.438-9.16 7.485-16.634 16.603-17.61 10.216-1.093 19.384 6.302 20.477 16.518z" fill="#e2dee2"/><path d="m373.868 257.461-19.81 2.12-20.591-192.415c-.71-6.586-4.765-11.999-10.301-14.716 2.686-2.151 5.999-3.581 9.632-3.962.669-.072 1.338-.103 1.996-.103 9.395 0 17.453 7.07 18.482 16.619z" fill="#cbc4cc"/></g><g><path d="m442.597 30.153c-3.922 12.517-14.108 35.265-37.857 44.145-1.939.725-1.939 3.515 0 4.24 23.75 8.88 33.936 31.628 37.857 44.145.663 2.117 3.672 2.117 4.336 0 3.922-12.517 14.108-35.265 37.857-44.145 1.939-.725 1.939-3.515 0-4.24-23.75-8.88-33.936-31.628-37.857-44.145-.663-2.117-3.672-2.117-4.336 0z" fill="#fdb441"/><path d="m484.79 78.539c-23.75 8.877-33.934 31.624-37.853 44.143-.666 2.12-3.677 2.12-4.343 0-1.748-5.581-4.733-13.169-9.604-20.679 4.387-9.344 3.78-18.542 16.957-23.465 1.938-.727 1.938-3.513 0-4.24-13.177-4.932-12.57-14.129-16.957-23.473 4.871-7.501 7.856-15.098 9.604-20.67.666-2.12 3.677-2.12 4.343 0 3.919 12.511 14.103 35.257 37.853 44.143 1.938.728 1.938 3.514 0 4.241z" fill="#fea613"/><g><path d="m53.603 395.427c-3.112 9.933-11.196 27.986-30.044 35.034-1.539.575-1.539 2.79 0 3.365 18.848 7.047 26.931 25.1 30.044 35.034.526 1.68 2.915 1.68 3.441 0 3.112-9.933 11.196-27.986 30.044-35.034 1.539-.575 1.539-2.79 0-3.365-18.848-7.047-26.931-25.1-30.044-35.034-.527-1.68-2.915-1.68-3.441 0z" fill="#fdb441"/><path d="m87.087 433.827c-18.848 7.045-26.93 25.097-30.04 35.032-.529 1.682-2.918 1.682-3.447 0-1.387-4.429-3.756-10.451-7.622-16.411 3.481-7.416 2.999-14.715 13.457-18.622 1.538-.577 1.538-2.788 0-3.365-10.458-3.914-9.976-11.213-13.457-18.629 3.866-5.953 6.235-11.982 7.622-16.404.529-1.682 2.918-1.682 3.447 0 3.11 9.929 11.192 27.981 30.04 35.032 1.538.579 1.538 2.79 0 3.367z" fill="#fea613"/></g></g></g></svg>